<svg width="1440" height="800" viewBox="0 0 1440 800" xmlns="http://www.w3.org/2000/svg" font-family="Inter, 'Segoe UI', Arial, sans-serif">
<rect width="1440" height="800" fill="#F8FAFC"/>
<rect x="0" y="0" width="1440" height="64" fill="#FFFFFF"/>
<line x1="0" y1="64" x2="1440" y2="64" stroke="#E2E8F0" stroke-width="1"/>
<rect x="32" y="17" width="30" height="30" rx="8" fill="#0D9488"/>
<text x="47" y="38" font-size="13" font-weight="700" fill="#FFFFFF" text-anchor="middle">JD</text>
<text x="72" y="39" font-size="18" font-weight="700" fill="#0F172A">Jaydee</text>
<text x="200" y="39" font-size="13" font-weight="600" fill="#0D9488">Tableau de production</text>
<text x="372" y="39" font-size="13" font-weight="400" fill="#64748B">Planification</text>
<text x="478" y="39" font-size="13" font-weight="400" fill="#64748B">Maintenance</text>
<text x="580" y="39" font-size="13" font-weight="400" fill="#64748B">Inventaire</text>
<rect x="200" y="50" width="148" height="2.5" rx="1" fill="#0D9488"/>
<rect x="1248" y="16" width="160" height="32" rx="8" fill="#0D9488"/>
<text x="1328" y="37" font-size="13" font-weight="600" fill="#FFFFFF" text-anchor="middle">+  Nouvelle tâche</text>
<circle cx="1224" cy="32" r="14" fill="#0F766E"/>
<text x="1224" y="37" font-size="11" font-weight="600" fill="#FFFFFF" text-anchor="middle">RR</text>
<text x="32" y="108" font-size="24" font-weight="700" fill="#0F172A">Tableau de production</text>
<text x="32" y="130" font-size="13" fill="#64748B">Unité de production 01  ·  Suivi en temps réel des ordres de fabrication</text>
<rect x="1248" y="92" width="160" height="32" rx="8" fill="#FFFFFF" stroke="#E2E8F0"/>
<text x="1328" y="112" font-size="12" fill="#1E293B" text-anchor="middle">Filtrer par priorité  ▾</text>
<rect x="32" y="152" width="329" height="600" rx="12" fill="#F1F5F9"/>
<text x="48" y="182" font-size="14" font-weight="600" fill="#334155">À faire</text>
<rect x="317" y="165" width="28" height="20" rx="10" fill="#E2E8F0"/>
<text x="331" y="179" font-size="12" font-weight="600" fill="#475569" text-anchor="middle">3</text>
<rect x="44" y="212" width="305" height="104" rx="10" fill="#FFFFFF" stroke="#E2E8F0"/>
<rect x="44" y="212" width="4" height="104" rx="2" fill="#EF4444"/>
<rect x="60" y="226" width="66" height="18" rx="9" fill="#FEE2E2"/>
<text x="93" y="239" font-size="9.5" font-weight="700" fill="#B91C1C" text-anchor="middle" letter-spacing="0.5">CRITIQUE</text>
<text x="60" y="266" font-size="14" font-weight="600" fill="#1E293B">Boîtier automobile</text>
<text x="60" y="285" font-size="12" fill="#64748B">OF-1043</text>
<text x="60" y="303" font-size="11" fill="#64748B">⏱  26 juin</text>
<circle cx="327" cy="297" r="11" fill="#0F766E"/>
<text x="327" y="301" font-size="9.5" font-weight="600" fill="#FFFFFF" text-anchor="middle">ML</text>
<rect x="44" y="330" width="305" height="104" rx="10" fill="#FFFFFF" stroke="#E2E8F0"/>
<rect x="44" y="330" width="4" height="104" rx="2" fill="#3B82F6"/>
<rect x="60" y="344" width="68" height="18" rx="9" fill="#DBEAFE"/>
<text x="94" y="357" font-size="9.5" font-weight="700" fill="#1D4ED8" text-anchor="middle" letter-spacing="0.5">STANDARD</text>
<text x="60" y="384" font-size="14" font-weight="600" fill="#1E293B">Support châssis S-44</text>
<text x="60" y="403" font-size="12" fill="#64748B">OF-1051</text>
<text x="60" y="421" font-size="11" fill="#64748B">⏱  28 juin</text>
<circle cx="327" cy="415" r="11" fill="#0F766E"/>
<text x="327" y="419" font-size="9.5" font-weight="600" fill="#FFFFFF" text-anchor="middle">AK</text>
<rect x="44" y="448" width="305" height="104" rx="10" fill="#FFFFFF" stroke="#E2E8F0"/>
<rect x="44" y="448" width="4" height="104" rx="2" fill="#F59E0B"/>
<rect x="60" y="462" width="62" height="18" rx="9" fill="#FEF3C7"/>
<text x="91" y="475" font-size="9.5" font-weight="700" fill="#B45309" text-anchor="middle" letter-spacing="0.5">ROUTINE</text>
<text x="60" y="502" font-size="14" font-weight="600" fill="#1E293B">Moule M-202 clavier</text>
<text x="60" y="521" font-size="12" fill="#64748B">OF-1067</text>
<text x="60" y="539" font-size="11" fill="#64748B">⏱  30 juin</text>
<circle cx="327" cy="533" r="11" fill="#0F766E"/>
<text x="327" y="537" font-size="9.5" font-weight="600" fill="#FFFFFF" text-anchor="middle">RR</text>
<rect x="381" y="152" width="329" height="600" rx="12" fill="#F1F5F9"/>
<text x="397" y="182" font-size="14" font-weight="600" fill="#334155">En cours</text>
<rect x="666" y="165" width="28" height="20" rx="10" fill="#E2E8F0"/>
<text x="680" y="179" font-size="12" font-weight="600" fill="#475569" text-anchor="middle">2</text>
<rect x="393" y="212" width="305" height="104" rx="10" fill="#FFFFFF" stroke="#E2E8F0"/>
<rect x="393" y="212" width="4" height="104" rx="2" fill="#14B8A6"/>
<rect x="409" y="226" width="68" height="18" rx="9" fill="#CCFBF1"/>
<text x="443" y="239" font-size="9.5" font-weight="700" fill="#0F766E" text-anchor="middle" letter-spacing="0.5">EN COURS</text>
<text x="409" y="266" font-size="14" font-weight="600" fill="#1E293B">Couvercle pompe P-05</text>
<text x="409" y="285" font-size="12" fill="#64748B">OF-1029</text>
<rect x="409" y="298" width="235" height="5" rx="2.5" fill="#E2E8F0"/>
<rect x="409" y="298" width="141" height="5" rx="2.5" fill="#0D9488"/>
<text x="652" y="303" font-size="11" font-weight="600" fill="#0F766E">60%</text>
<circle cx="676" cy="297" r="11" fill="#0F766E"/>
<text x="676" y="301" font-size="9.5" font-weight="600" fill="#FFFFFF" text-anchor="middle">RR</text>
<rect x="393" y="330" width="305" height="104" rx="10" fill="#FFFFFF" stroke="#E2E8F0"/>
<rect x="393" y="330" width="4" height="104" rx="2" fill="#EF4444"/>
<rect x="409" y="344" width="66" height="18" rx="9" fill="#FEE2E2"/>
<text x="442" y="357" font-size="9.5" font-weight="700" fill="#B91C1C" text-anchor="middle" letter-spacing="0.5">CRITIQUE</text>
<text x="409" y="384" font-size="14" font-weight="600" fill="#1E293B">Axe rotatif R-12</text>
<text x="409" y="403" font-size="12" fill="#64748B">OF-1033</text>
<rect x="409" y="416" width="235" height="5" rx="2.5" fill="#E2E8F0"/>
<rect x="409" y="416" width="70" height="5" rx="2.5" fill="#0D9488"/>
<text x="652" y="421" font-size="11" font-weight="600" fill="#0F766E">30%</text>
<circle cx="676" cy="415" r="11" fill="#0F766E"/>
<text x="676" y="419" font-size="9.5" font-weight="600" fill="#FFFFFF" text-anchor="middle">AK</text>
<rect x="730" y="152" width="329" height="600" rx="12" fill="#F1F5F9"/>
<text x="746" y="182" font-size="14" font-weight="600" fill="#334155">À contrôler</text>
<rect x="1015" y="165" width="28" height="20" rx="10" fill="#E2E8F0"/>
<text x="1029" y="179" font-size="12" font-weight="600" fill="#475569" text-anchor="middle">2</text>
<rect x="742" y="212" width="305" height="104" rx="10" fill="#FFFFFF" stroke="#E2E8F0"/>
<rect x="742" y="212" width="4" height="104" rx="2" fill="#F59E0B"/>
<rect x="758" y="226" width="58" height="18" rx="9" fill="#FEF3C7"/>
<text x="787" y="239" font-size="9.5" font-weight="700" fill="#B45309" text-anchor="middle" letter-spacing="0.5">QUALITÉ</text>
<text x="758" y="266" font-size="14" font-weight="600" fill="#1E293B">Vanne de contrôle V-4</text>
<text x="758" y="285" font-size="12" fill="#64748B">OF-1018</text>
<text x="758" y="303" font-size="11" fill="#64748B">⏱  auj.</text>
<circle cx="1025" cy="297" r="11" fill="#0F766E"/>
<text x="1025" y="301" font-size="9.5" font-weight="600" fill="#FFFFFF" text-anchor="middle">ML</text>
<rect x="742" y="330" width="305" height="104" rx="10" fill="#FFFFFF" stroke="#E2E8F0"/>
<rect x="742" y="330" width="4" height="104" rx="2" fill="#3B82F6"/>
<rect x="758" y="344" width="94" height="18" rx="9" fill="#DBEAFE"/>
<text x="805" y="357" font-size="9.5" font-weight="700" fill="#1D4ED8" text-anchor="middle" letter-spacing="0.5">DIMENSIONNEL</text>
<text x="758" y="384" font-size="14" font-weight="600" fill="#1E293B">Châssis Alu-Z</text>
<text x="758" y="403" font-size="12" fill="#64748B">OF-1009</text>
<text x="758" y="421" font-size="11" fill="#64748B">⏱  auj.</text>
<circle cx="1025" cy="415" r="11" fill="#0F766E"/>
<text x="1025" y="419" font-size="9.5" font-weight="600" fill="#FFFFFF" text-anchor="middle">RR</text>
<rect x="1079" y="152" width="329" height="600" rx="12" fill="#F1F5F9"/>
<text x="1095" y="182" font-size="14" font-weight="600" fill="#334155">Terminé</text>
<rect x="1364" y="165" width="28" height="20" rx="10" fill="#E2E8F0"/>
<text x="1378" y="179" font-size="12" font-weight="600" fill="#475569" text-anchor="middle">2</text>
<rect x="1091" y="212" width="305" height="104" rx="10" fill="#FFFFFF" stroke="#E2E8F0"/>
<rect x="1091" y="212" width="4" height="104" rx="2" fill="#22C55E"/>
<rect x="1107" y="226" width="64" height="18" rx="9" fill="#DCFCE7"/>
<text x="1139" y="239" font-size="9.5" font-weight="700" fill="#15803D" text-anchor="middle" letter-spacing="0.5">TERMINÉ</text>
<text x="1107" y="266" font-size="14" font-weight="600" fill="#1E293B">Carter B-21</text>
<text x="1107" y="285" font-size="12" fill="#64748B">OF-0998</text>
<text x="1107" y="303" font-size="11" fill="#64748B">⏱  24 juin</text>
<circle cx="1374" cy="297" r="11" fill="#0F766E"/>
<text x="1374" y="301" font-size="9.5" font-weight="600" fill="#FFFFFF" text-anchor="middle">AK</text>
<rect x="1091" y="330" width="305" height="104" rx="10" fill="#FFFFFF" stroke="#E2E8F0"/>
<rect x="1091" y="330" width="4" height="104" rx="2" fill="#22C55E"/>
<rect x="1107" y="344" width="64" height="18" rx="9" fill="#DCFCE7"/>
<text x="1139" y="357" font-size="9.5" font-weight="700" fill="#15803D" text-anchor="middle" letter-spacing="0.5">TERMINÉ</text>
<text x="1107" y="384" font-size="14" font-weight="600" fill="#1E293B">Joint torique J-08</text>
<text x="1107" y="403" font-size="12" fill="#64748B">OF-0991</text>
<text x="1107" y="421" font-size="11" fill="#64748B">⏱  23 juin</text>
<circle cx="1374" cy="415" r="11" fill="#0F766E"/>
<text x="1374" y="419" font-size="9.5" font-weight="600" fill="#FFFFFF" text-anchor="middle">ML</text>
</svg>